<?xml version="1.0" standalone="no"?>
<!DOCTYPE svg PUBLIC "-//W3C//DTD SVG 20010904//EN"
 "http://www.w3.org/TR/2001/REC-SVG-20010904/DTD/svg10.dtd">
<svg version="1.0" xmlns="http://www.w3.org/2000/svg"
 width="1120.000000pt" height="1120.000000pt" viewBox="0 0 1120.000000 1120.000000"
 preserveAspectRatio="xMidYMid meet">

<g transform="translate(0.000000,1120.000000) scale(0.100000,-0.100000)"
fill="#1a130f" stroke="none">
<path d="M5360 11010 c-287 -15 -495 -41 -840 -104 -130 -24 -430 -104 -601
-160 -247 -81 -583 -220 -749 -309 -614 -329 -990 -606 -1425 -1049 -740 -753
-1236 -1695 -1439 -2733 -123 -629 -132 -1326 -25 -1945 167 -970 567 -1824
1215 -2595 128 -153 523 -540 680 -667 419 -339 825 -586 1309 -796 314 -135
815 -290 1080 -332 37 -6 71 -12 74 -14 11 -7 283 -45 446 -63 224 -25 824
-25 1040 0 637 74 1138 206 1670 442 517 229 1028 562 1430 932 742 682 1255
1488 1535 2409 88 290 162 621 190 858 6 49 13 93 15 97 3 3 12 130 21 280 34
569 -7 1070 -132 1606 -92 400 -220 752 -414 1140 -309 621 -645 1073 -1153
1552 -789 744 -1771 1221 -2872 1396 -285 45 -757 70 -1055 55z m533 -1263
c49 -32 48 -106 -1 -130 -35 -17 -557 -16 -590 2 -26 14 -35 42 -27 81 14 64
45 70 351 67 209 -3 245 -5 267 -20z m-964 -73 c42 -53 17 -109 -59 -132 -19
-6 -88 -23 -152 -37 -65 -14 -154 -37 -199 -50 -107 -32 -172 -33 -193 -3 -18
25 -21 70 -7 97 14 25 67 46 226 88 154 40 258 60 322 62 34 1 45 -4 62 -25z
m1526 11 c102 -20 289 -69 360 -96 68 -25 94 -63 74 -110 -13 -33 -36 -49 -71
-49 -13 0 -115 23 -228 50 -113 28 -227 56 -254 63 -83 20 -109 84 -56 137 24
24 66 25 175 5z m-2466 -301 c12 -15 21 -41 21 -59 0 -39 -23 -56 -196 -143
-66 -33 -159 -83 -209 -111 -87 -49 -116 -58 -150 -45 -19 7 -45 55 -45 82 0
41 90 103 318 217 190 96 226 104 261 59z m3460 -43 c158 -80 286 -153 319
-184 30 -28 28 -68 -5 -107 -21 -26 -32 -31 -54 -26 -35 7 -472 233 -499 258
-24 22 -25 46 -6 93 14 33 18 35 61 35 36 0 73 -14 184 -69z m-4285 -483 c34
-48 35 -46 -242 -293 -85 -75 -164 -141 -177 -147 -52 -24 -116 37 -101 95 11
45 328 335 414 378 31 16 38 17 63 4 15 -8 35 -25 43 -37z m5010 19 c134 -93
376 -320 390 -365 10 -29 -14 -66 -54 -87 -40 -21 -59 -10 -175 97 -50 46
-139 125 -198 176 -59 51 -108 100 -108 110 -3 35 3 48 33 75 34 32 60 31 112
-6z m-70 -628 c72 -50 152 -177 194 -309 49 -152 65 -263 60 -419 -3 -84 -12
-178 -22 -221 -26 -110 -102 -259 -191 -370 -41 -52 -80 -112 -87 -132 -14
-46 1 -87 77 -210 322 -519 487 -1200 446 -1838 -19 -290 -67 -573 -132 -780
-111 -346 -430 -769 -679 -899 -300 -156 -645 -120 -911 95 -80 64 -155 161
-208 269 -49 99 -70 178 -77 297 -13 203 45 373 192 568 44 58 87 116 95 130
29 45 56 134 68 218 16 111 17 458 2 552 -57 343 -165 572 -363 767 -197 194
-438 311 -748 364 -118 20 -386 18 -505 -5 -294 -55 -565 -192 -751 -380 -138
-140 -215 -262 -273 -434 -43 -129 -61 -241 -68 -412 -14 -360 95 -550 314
-550 83 0 157 46 183 114 7 20 9 89 5 215 -6 178 -6 190 19 284 37 144 93 244
196 348 92 94 160 142 260 184 110 46 203 65 322 65 248 0 420 -71 595 -246
69 -69 89 -98 132 -185 88 -182 116 -346 108 -634 -9 -303 -50 -473 -172 -720
-262 -527 -774 -887 -1410 -992 -147 -24 -456 -23 -600 2 -393 67 -701 218
-971 478 -235 224 -398 507 -503 872 -110 383 -107 938 9 1455 64 287 220 649
373 869 25 35 43 69 40 75 -3 6 -33 34 -66 62 -144 118 -235 265 -282 458 -26
104 -27 119 -22 285 4 144 10 192 30 266 74 273 180 414 312 415 95 0 286 -75
490 -195 55 -32 195 -118 310 -190 116 -72 225 -137 244 -143 58 -20 115 -14
218 24 323 118 441 151 660 189 193 33 336 45 568 45 395 0 675 -47 1077 -180
99 -33 197 -60 217 -60 80 0 81 1 448 237 385 249 537 321 677 322 55 1 76 -3
100 -20z m-5645 -74 c17 -20 31 -39 31 -43 0 -5 -19 -36 -42 -70 -24 -34 -90
-130 -147 -214 -127 -187 -146 -208 -184 -208 -31 0 -87 47 -87 73 0 51 271
453 328 486 35 21 69 12 101 -24z m6418 -7 c90 -99 280 -379 290 -429 7 -37
-15 -72 -57 -89 -28 -11 -34 -11 -58 7 -15 10 -55 62 -90 114 -35 52 -101 146
-147 209 -100 138 -106 155 -70 198 40 48 81 44 132 -10z m-6948 -813 c56 -29
55 -50 -18 -232 -32 -82 -71 -186 -86 -231 -45 -137 -104 -184 -160 -127 -18
17 -25 35 -25 63 0 49 87 306 144 428 54 114 81 133 145 99z m7457 -30 c56
-96 184 -445 184 -501 0 -41 -39 -74 -86 -74 -44 0 -64 30 -112 171 -22 63
-63 172 -92 242 -46 114 -51 132 -40 157 13 32 42 48 87 49 28 1 36 -5 59 -44z
m277 -914 c28 -27 59 -211 83 -493 6 -76 6 -78 -24 -108 -57 -56 -125 -25
-136 61 -42 338 -51 423 -51 474 0 59 1 60 35 77 38 19 65 16 93 -11z m-8016
4 c30 -21 32 -48 12 -207 -10 -78 -23 -188 -29 -243 -13 -118 -25 -162 -50
-175 -31 -17 -76 -12 -96 11 -17 19 -19 36 -17 143 1 117 32 357 54 423 19 58
79 81 126 48z m-49 -978 c10 -12 27 -113 37 -227 3 -36 12 -108 20 -160 28
-193 28 -188 -4 -221 -35 -35 -70 -37 -106 -6 -28 24 -41 82 -70 327 -22 185
-20 246 8 273 25 25 99 34 115 14z m8128 -8 c16 -18 19 -35 16 -122 -2 -113
-36 -378 -55 -434 -7 -20 -23 -44 -37 -55 -21 -15 -31 -16 -62 -8 -64 18 -67
40 -38 245 5 39 17 133 26 210 9 80 22 150 30 163 20 31 92 31 120 1z m-7961
-965 c13 -14 27 -36 30 -48 4 -11 15 -43 25 -71 61 -165 83 -220 114 -292 47
-106 47 -144 2 -172 -45 -28 -67 -26 -99 7 -32 33 -99 191 -162 381 l-47 141
19 32 c17 29 35 39 86 47 4 0 19 -11 32 -25z m7786 0 c38 -34 14 -136 -91
-392 -87 -214 -124 -247 -197 -179 -35 31 -29 70 36 228 32 79 68 176 81 214
43 131 65 160 118 151 19 -3 43 -13 53 -22z m-7356 -931 c17 -22 87 -122 158
-221 142 -202 149 -222 96 -266 -39 -33 -59 -33 -99 0 -54 46 -244 313 -301
423 -20 40 -21 46 -8 70 8 14 30 34 49 43 41 21 59 13 105 -49z m6944 42 c49
-42 48 -57 -9 -153 -67 -111 -203 -304 -250 -354 -43 -44 -82 -50 -124 -17
-40 32 -35 72 19 147 25 34 93 132 151 217 134 197 152 211 213 160z m-612
-764 c35 -22 48 -50 39 -87 -8 -30 -135 -158 -265 -267 -109 -91 -163 -127
-192 -127 -28 0 -79 53 -79 82 1 29 16 46 110 128 41 35 123 108 182 162 91
85 148 128 168 128 3 0 19 -9 37 -19z m-5741 -19 c83 -73 323 -291 356 -323
21 -20 38 -46 38 -57 0 -28 -53 -82 -82 -82 -40 0 -126 65 -326 249 -140 128
-155 159 -103 212 38 37 76 38 117 1z m859 -648 c66 -36 163 -88 216 -114 163
-82 188 -117 129 -180 -41 -44 -56 -40 -275 70 -218 109 -270 141 -289 178
-14 27 -13 33 6 71 30 61 62 58 213 -25z m4124 40 c52 -66 14 -111 -172 -212
-314 -170 -379 -184 -404 -83 -9 38 16 72 77 103 30 15 136 70 235 123 198
104 230 113 264 69z m-3179 -422 c85 -22 190 -47 232 -57 90 -19 128 -44 128
-85 0 -42 -9 -59 -42 -76 -36 -19 -72 -14 -283 36 -179 43 -268 73 -296 101
-25 25 -24 70 2 104 28 34 49 32 259 -23z m2263 36 c55 -29 63 -83 17 -121
-67 -56 -487 -157 -565 -136 -35 10 -45 29 -45 86 0 50 12 55 364 134 49 11
93 22 98 25 5 3 30 9 56 14 26 4 48 8 50 9 2 0 13 -4 25 -11z m-944 -192 c29
-26 28 -76 -3 -105 -35 -33 -144 -44 -361 -38 -201 6 -230 12 -258 50 -17 21
-18 32 -11 59 16 56 30 58 335 56 256 -3 279 -4 298 -22z"/>
</g>
</svg>
